# xmcd
# 
# Track frame offsets:
#     150
#     22151
#     26146
#     57276
#     70865
#     88546
#     128227
#     148209
#     170755
#     180582
#     188031
#     235550
#     250176
#     270057
#     283563
#     318493
# 
# Disc length: 4441
# 
# Revision: 0
# Processed by: cddbd v1.5.2PL0 Copyright (c) Steve Scherf et al.
# Submitted via: fre:ac v1.0.27
# 
DISCID=e1115710
DTITLE=Bela Fleck and Edgar Meyer - Music for Two
DYEAR=2004
DGENRE=Jazz
TTITLE0=Bug Tussle
TTITLE1=Invention 10 (BWV 725) (from Two-Part Inventions and Three-Part Sinfonias)
TTITLE2=Pile Up
TTITLE3=Prelude No. 24 (BWV 869) (from The Well-Tempered Clavier, Book I)
TTITLE4=Solar (Miles Davis)
TTITLE5=Blue Spruce
TTITLE6=Canon
TTITLE7=The One I Left Behind
TTITLE8=V. Menuett 1-II (BWV 825) (from Partita No. 1)
TTITLE9=Prelude No. 2 (BWV 847) (from The Well-Tempered Clavier, Book I)
TTITLE10=Palmyra
TTITLE11=The Lake Effect
TTITLE12=Largo and Allegro Vivace (Eccles)
TTITLE13=Wrong Number
TTITLE14=Woolly Mammoth
TTITLE15=Wishful Thinking
EXTD=
EXTT0=
EXTT1=
EXTT2=
EXTT3=
EXTT4=
EXTT5=
EXTT6=
EXTT7=
EXTT8=
EXTT9=
EXTT10=
EXTT11=
EXTT12=
EXTT13=
EXTT14=
EXTT15=
PLAYORDER=
